<?xml version="1.0" encoding="utf-8"?>
<!-- Generator: Adobe Illustrator 23.0.2, SVG Export Plug-In . SVG Version: 6.00 Build 0)  -->
<svg version="1.1" xmlns="http://www.w3.org/2000/svg" xmlns:xlink="http://www.w3.org/1999/xlink" x="0px" y="0px"
	 viewBox="0 0 360 360" style="enable-background:new 0 0 360 360;" xml:space="preserve">
<style type="text/css">
	.st0{fill:#455224;}
	.st1{fill:#458E41;}
	.st2{fill:#446C33;}
</style>
<g id="Layer_2">
	<polygon class="st0" points="152.9,215.8 47.7,314.8 258,314.8 	"/>
	<polygon class="st0" points="103.3,204.2 9.6,334 197.1,334 	"/>
	<polygon class="st0" points="236,229.3 130.9,308.8 341.2,308.8 	"/>
</g>
<g id="Layer_1">
	<path class="st1" d="M69.7,129.6l-25.8,9.9c-4.6,1.8-9.8-0.6-11.6-5.2l0,0c-1.8-4.6,0.6-9.8,5.2-11.6l25.8-9.9
		c4.6-1.8,9.8,0.6,11.6,5.2l0,0C76.7,122.7,74.3,127.9,69.7,129.6z"/>
	<path class="st0" d="M168.5,85.7l-25.8,9.9c-4.6,1.8-9.8-0.6-11.6-5.2v0c-1.8-4.6,0.6-9.8,5.2-11.6l25.8-9.9
		c4.6-1.8,9.8,0.6,11.6,5.2l0,0C175.5,78.7,173.2,83.9,168.5,85.7z"/>
	<circle class="st2" cx="102.2" cy="104.1" r="62.5"/>
	<polygon class="st2" points="66.1,230.4 17.9,334 114.3,334 	"/>
	<polygon class="st2" points="126.1,245.2 53.6,334 198.6,334 	"/>
	<polygon class="st2" points="198.6,175.9 119.5,334 277.8,334 	"/>
	<polygon class="st2" points="275.4,215.8 192,334 358.8,334 	"/>
	<rect x="48.8" y="37.6" transform="matrix(0.7071 -0.7071 0.7071 0.7071 -23.1173 52.4401)" class="st2" width="5.8" height="33"/>
	
		<rect x="54.3" y="138.8" transform="matrix(-0.7071 -0.7071 0.7071 -0.7071 -12.2808 305.5757)" class="st2" width="5.8" height="33"/>
	<rect x="147" y="34.8" transform="matrix(0.7071 0.7071 -0.7071 0.7071 80.1829 -90.9828)" class="st2" width="5.8" height="33"/>
	<circle class="st2" cx="172.9" cy="160.2" r="8.9"/>
	
		<rect x="156.3" y="130" transform="matrix(-0.7071 0.7071 -0.7071 -0.7071 375.3704 137.4769)" class="st2" width="5.8" height="33"/>
	<circle class="st2" cx="21" cy="107.8" r="8.9"/>
	
		<rect x="37.6" y="91.3" transform="matrix(6.123234e-17 -1 1 6.123234e-17 -67.3935 148.2872)" class="st2" width="5.8" height="33"/>
	
		<rect x="100.8" y="149.5" transform="matrix(-1 -1.224647e-16 1.224647e-16 -1 207.4711 332.0425)" class="st2" width="5.8" height="33"/>
	<rect x="92.9" y="30.6" class="st2" width="5.8" height="33"/>
	
		<rect x="160.9" y="91.3" transform="matrix(-1.836970e-16 1 -1 -1.836970e-16 271.6167 -55.936)" class="st2" width="5.8" height="33"/>
	<path class="st2" d="M127.6,167.8l-16-22.6c-2.9-4.1-1.9-9.7,2.2-12.5l0,0c4.1-2.9,9.7-1.9,12.5,2.2l16,22.6
		c2.9,4.1,1.9,9.7-2.2,12.5l0,0C136.1,172.9,130.5,171.9,127.6,167.8z"/>
	<path class="st2" d="M134.5,48l-16,22.6c-2.9,4.1-8.5,5-12.5,2.2l0,0c-4.1-2.9-5-8.5-2.2-12.5l16-22.6c2.9-4.1,8.5-5,12.5-2.2l0,0
		C136.4,38.3,137.4,44,134.5,48z"/>
	<path class="st2" d="M71.3,81.4l-27.4,3.8c-4.9,0.7-9.5-2.7-10.2-7.7v0c-0.7-4.9,2.7-9.5,7.7-10.2l27.4-3.8
		c4.9-0.7,9.5,2.7,10.2,7.7v0C79.7,76.2,76.2,80.7,71.3,81.4z"/>
	<circle class="st1" cx="163.6" cy="37.6" r="8.9"/>
	<circle class="st1" cx="103.7" cy="185.4" r="8.9"/>
	<circle class="st1" cx="95.8" cy="27.7" r="8.9"/>
	<circle class="st0" cx="38" cy="40.4" r="8.9"/>
	<circle class="st0" cx="43.4" cy="169.1" r="8.9"/>
	<circle class="st0" cx="183.2" cy="107.8" r="8.9"/>
</g>
<g id="Layer_3">
	<polygon class="st1" points="183.9,277.1 96.9,334 271,334 	"/>
	<polygon class="st1" points="255.6,252.9 158.7,334 352.4,334 	"/>
	<polygon class="st1" points="106.3,277.1 1.2,334 211.5,334 	"/>
</g>
</svg>
